<?xml version="1.0" encoding="UTF-8"?>
<!--Generator: Apple Native CoreSVG 175.5-->
<!DOCTYPE svg
PUBLIC "-//W3C//DTD SVG 1.1//EN"
       "http://www.w3.org/Graphics/SVG/1.1/DTD/svg11.dtd">
<svg version="1.1" xmlns="http://www.w3.org/2000/svg" xmlns:xlink="http://www.w3.org/1999/xlink" width="3300" height="2200">
 <!--glyph: "uni1002C2.medium", point size: 100.0, font version: "18.0d12e2", template writer version: "101"-->
 <g id="Notes">
  <rect height="2200" id="artboard" style="fill:white;opacity:1" width="3300" x="0" y="0"/>
  <line style="fill:none;stroke:black;opacity:1;stroke-width:0.5;" x1="263" x2="3036" y1="292" y2="292"/>
  <text style="stroke:none;fill:black;font-family:sans-serif;font-size:13;font-weight:bold;" transform="matrix(1 0 0 1 263 322)">Weight/Scale Variations</text>
  <text style="stroke:none;fill:black;font-family:sans-serif;font-size:13;text-anchor:middle;" transform="matrix(1 0 0 1 559.711 322)">Ultralight</text>
  <text style="stroke:none;fill:black;font-family:sans-serif;font-size:13;text-anchor:middle;" transform="matrix(1 0 0 1 856.422 322)">Thin</text>
  <text style="stroke:none;fill:black;font-family:sans-serif;font-size:13;text-anchor:middle;" transform="matrix(1 0 0 1 1153.13 322)">Light</text>
  <text style="stroke:none;fill:black;font-family:sans-serif;font-size:13;text-anchor:middle;" transform="matrix(1 0 0 1 1449.84 322)">Regular</text>
  <text style="stroke:none;fill:black;font-family:sans-serif;font-size:13;text-anchor:middle;" transform="matrix(1 0 0 1 1746.56 322)">Medium</text>
  <text style="stroke:none;fill:black;font-family:sans-serif;font-size:13;text-anchor:middle;" transform="matrix(1 0 0 1 2043.27 322)">Semibold</text>
  <text style="stroke:none;fill:black;font-family:sans-serif;font-size:13;text-anchor:middle;" transform="matrix(1 0 0 1 2339.98 322)">Bold</text>
  <text style="stroke:none;fill:black;font-family:sans-serif;font-size:13;text-anchor:middle;" transform="matrix(1 0 0 1 2636.69 322)">Heavy</text>
  <text style="stroke:none;fill:black;font-family:sans-serif;font-size:13;text-anchor:middle;" transform="matrix(1 0 0 1 2933.4 322)">Black</text>
  <line style="fill:none;stroke:black;opacity:1;stroke-width:0.5;" x1="263" x2="3036" y1="1903" y2="1903"/>
  <g transform="matrix(1 0 0 1 263 1933)">
   <path d="M9.24805 0.830078C13.5547 0.830078 17.1387-2.74414 17.1387-7.05078C17.1387-11.3574 13.5449-14.9316 9.23828-14.9316C4.94141-14.9316 1.36719-11.3574 1.36719-7.05078C1.36719-2.74414 4.95117 0.830078 9.24805 0.830078ZM9.24805-0.654297C5.70312-0.654297 2.87109-3.49609 2.87109-7.05078C2.87109-10.6055 5.69336-13.4473 9.23828-13.4473C12.793-13.4473 15.6445-10.6055 15.6445-7.05078C15.6445-3.49609 12.8027-0.654297 9.24805-0.654297ZM5.6543-7.05078C5.6543-6.62109 5.95703-6.32812 6.40625-6.32812L8.50586-6.32812L8.50586-4.20898C8.50586-3.76953 8.79883-3.4668 9.22852-3.4668C9.67773-3.4668 9.9707-3.76953 9.9707-4.20898L9.9707-6.32812L12.0898-6.32812C12.5293-6.32812 12.832-6.62109 12.832-7.05078C12.832-7.49023 12.5293-7.79297 12.0898-7.79297L9.9707-7.79297L9.9707-9.90234C9.9707-10.3516 9.67773-10.6543 9.22852-10.6543C8.79883-10.6543 8.50586-10.3516 8.50586-9.90234L8.50586-7.79297L6.40625-7.79297C5.95703-7.79297 5.6543-7.49023 5.6543-7.05078Z"/>
  </g>
  <g transform="matrix(1 0 0 1 281.867 1933)">
   <path d="M11.709 2.91016C17.1582 2.91016 21.6699-1.61133 21.6699-7.05078C21.6699-12.5 17.1484-17.0117 11.6992-17.0117C6.25977-17.0117 1.74805-12.5 1.74805-7.05078C1.74805-1.61133 6.26953 2.91016 11.709 2.91016ZM11.709 1.25C7.09961 1.25 3.41797-2.44141 3.41797-7.05078C3.41797-11.6602 7.08984-15.3516 11.6992-15.3516C16.3086-15.3516 20.0098-11.6602 20.0098-7.05078C20.0098-2.44141 16.3184 1.25 11.709 1.25ZM7.17773-7.05078C7.17773-6.57227 7.50977-6.25 8.00781-6.25L10.8789-6.25L10.8789-3.36914C10.8789-2.88086 11.2109-2.53906 11.6895-2.53906C12.1777-2.53906 12.5195-2.87109 12.5195-3.36914L12.5195-6.25L15.4004-6.25C15.8887-6.25 16.2305-6.57227 16.2305-7.05078C16.2305-7.53906 15.8887-7.88086 15.4004-7.88086L12.5195-7.88086L12.5195-10.752C12.5195-11.25 12.1777-11.5918 11.6895-11.5918C11.2109-11.5918 10.8789-11.25 10.8789-10.752L10.8789-7.88086L8.00781-7.88086C7.50977-7.88086 7.17773-7.53906 7.17773-7.05078Z"/>
  </g>
  <g transform="matrix(1 0 0 1 305.646 1933)">
   <path d="M14.9707 5.66406C21.9336 5.66406 27.6953-0.0976562 27.6953-7.05078C27.6953-14.0137 21.9238-19.7754 14.9609-19.7754C8.00781-19.7754 2.25586-14.0137 2.25586-7.05078C2.25586-0.0976562 8.01758 5.66406 14.9707 5.66406ZM14.9707 3.84766C8.93555 3.84766 4.08203-1.01562 4.08203-7.05078C4.08203-13.0957 8.92578-17.9492 14.9609-17.9492C21.0059-17.9492 25.8691-13.0957 25.8691-7.05078C25.8691-1.01562 21.0156 3.84766 14.9707 3.84766ZM9.19922-7.05078C9.19922-6.5332 9.57031-6.17188 10.1172-6.17188L14.0625-6.17188L14.0625-2.2168C14.0625-1.67969 14.4336-1.29883 14.9512-1.29883C15.4883-1.29883 15.8594-1.66992 15.8594-2.2168L15.8594-6.17188L19.8145-6.17188C20.3516-6.17188 20.7324-6.5332 20.7324-7.05078C20.7324-7.59766 20.3613-7.96875 19.8145-7.96875L15.8594-7.96875L15.8594-11.9141C15.8594-12.4609 15.4883-12.8418 14.9512-12.8418C14.4336-12.8418 14.0625-12.4609 14.0625-11.9141L14.0625-7.96875L10.1172-7.96875C9.57031-7.96875 9.19922-7.59766 9.19922-7.05078Z"/>
  </g>
  <text style="stroke:none;fill:black;font-family:sans-serif;font-size:13;font-weight:bold;" transform="matrix(1 0 0 1 263 1953)">Design Variations</text>
  <text style="stroke:none;fill:black;font-family:sans-serif;font-size:13;" transform="matrix(1 0 0 1 263 1971)">Symbols are supported in up to nine weights and three scales.</text>
  <text style="stroke:none;fill:black;font-family:sans-serif;font-size:13;" transform="matrix(1 0 0 1 263 1989)">For optimal layout with text and other symbols, vertically align</text>
  <text style="stroke:none;fill:black;font-family:sans-serif;font-size:13;" transform="matrix(1 0 0 1 263 2007)">symbols with the adjacent text.</text>
  <line style="fill:none;stroke:#00AEEF;stroke-width:0.5;opacity:1.0;" x1="776" x2="776" y1="1919" y2="1933"/>
  <g transform="matrix(1 0 0 1 776 1933)">
   <path d="M3.31055 0.15625C3.82812 0.15625 4.08203-0.0390625 4.26758-0.585938L5.52734-4.0332L11.2891-4.0332L12.5488-0.585938C12.7344-0.0390625 12.9883 0.15625 13.4961 0.15625C14.0137 0.15625 14.3457-0.15625 14.3457-0.644531C14.3457-0.810547 14.3164-0.966797 14.2383-1.17188L9.6582-13.3691C9.43359-13.9648 9.0332-14.2676 8.4082-14.2676C7.80273-14.2676 7.39258-13.9746 7.17773-13.3789L2.59766-1.16211C2.51953-0.957031 2.49023-0.800781 2.49023-0.634766C2.49023-0.146484 2.80273 0.15625 3.31055 0.15625ZM6.00586-5.51758L8.37891-12.0898L8.42773-12.0898L10.8008-5.51758Z"/>
  </g>
  <line style="fill:none;stroke:#00AEEF;stroke-width:0.5;opacity:1.0;" x1="793.197" x2="793.197" y1="1919" y2="1933"/>
  <text style="stroke:none;fill:black;font-family:sans-serif;font-size:13;font-weight:bold;" transform="matrix(1 0 0 1 776 1953)">Margins</text>
  <text style="stroke:none;fill:black;font-family:sans-serif;font-size:13;" transform="matrix(1 0 0 1 776 1971)">Leading and trailing margins on the left and right side of each symbol</text>
  <text style="stroke:none;fill:black;font-family:sans-serif;font-size:13;" transform="matrix(1 0 0 1 776 1989)">can be adjusted by modifying the x-location of the margin guidelines.</text>
  <text style="stroke:none;fill:black;font-family:sans-serif;font-size:13;" transform="matrix(1 0 0 1 776 2007)">Modifications are automatically applied proportionally to all</text>
  <text style="stroke:none;fill:black;font-family:sans-serif;font-size:13;" transform="matrix(1 0 0 1 776 2025)">scales and weights.</text>
  <g transform="matrix(1 0 0 1 1289 1933)">
   <path d="M2.8418 1.86523L4.54102 3.57422C5.40039 4.44336 6.38672 4.38477 7.31445 3.35938L18.0078-8.42773L17.041-9.4043L6.42578 2.27539C6.07422 2.67578 5.74219 2.77344 5.27344 2.30469L4.10156 1.14258C3.63281 0.683594 3.74023 0.341797 4.14062-0.0195312L15.6152-10.8203L14.6387-11.7871L3.04688-0.898438C2.06055 0.0195312 1.98242 0.996094 2.8418 1.86523ZM9.25781-16.3281C8.83789-15.918 8.80859-15.3418 9.04297-14.9512C9.27734-14.5898 9.73633-14.3555 10.3809-14.5215C11.8457-14.8633 13.3691-14.9219 14.7949-13.9844L14.209-12.5293C13.8672-11.6992 14.043-11.1133 14.5801-10.5664L16.875-8.25195C17.3633-7.76367 17.7734-7.74414 18.3398-7.8418L19.4043-8.03711L20.0684-7.36328L20.0293-6.80664C19.9902-6.30859 20.1172-5.92773 20.6055-5.44922L21.3672-4.70703C21.8457-4.22852 22.4609-4.19922 22.9297-4.66797L25.8398-7.58789C26.3086-8.05664 26.2891-8.65234 25.8105-9.13086L25.0391-9.89258C24.5605-10.3711 24.1895-10.5273 23.7109-10.4883L23.1348-10.4395L22.4902-11.0742L22.7344-12.1973C22.8613-12.7637 22.7051-13.2031 22.1191-13.7891L19.9219-15.9766C16.582-19.2969 12.1484-19.2188 9.25781-16.3281ZM10.752-15.957C13.1836-17.7344 16.4746-17.4316 18.7012-15.2051L21.1328-12.793C21.3672-12.5586 21.4062-12.373 21.3379-12.0312L21.0156-10.5469L22.5195-9.0625L23.5059-9.12109C23.7598-9.13086 23.8379-9.11133 24.0332-8.91602L24.6094-8.33984L22.168-5.89844L21.5918-6.47461C21.3965-6.66992 21.3672-6.74805 21.377-7.01172L21.4453-7.98828L19.9512-9.47266L18.4277-9.21875C18.1055-9.15039 17.959-9.17969 17.7148-9.41406L15.7129-11.416C15.459-11.6504 15.4297-11.8164 15.5859-12.1875L16.4648-14.2773C14.9023-15.7324 12.8711-16.3574 10.8398-15.7617C10.6836-15.7227 10.625-15.8496 10.752-15.957Z"/>
  </g>
  <text style="stroke:none;fill:black;font-family:sans-serif;font-size:13;font-weight:bold;" transform="matrix(1 0 0 1 1289 1953)">Exporting</text>
  <text style="stroke:none;fill:black;font-family:sans-serif;font-size:13;" transform="matrix(1 0 0 1 1289 1971)">Symbols should be outlined when exporting to ensure the</text>
  <text style="stroke:none;fill:black;font-family:sans-serif;font-size:13;" transform="matrix(1 0 0 1 1289 1989)">design is preserved when submitting to Xcode.</text>
  <text id="template-version" style="stroke:none;fill:black;font-family:sans-serif;font-size:13;text-anchor:end;" transform="matrix(1 0 0 1 3036 1933)">Template v.2.0</text>
  <text style="stroke:none;fill:black;font-family:sans-serif;font-size:13;text-anchor:end;" transform="matrix(1 0 0 1 3036 1951)">Requires Xcode 12 or greater</text>
  <text id="descriptive-name" style="stroke:none;fill:black;font-family:sans-serif;font-size:13;text-anchor:end;" transform="matrix(1 0 0 1 3036 1969)">Generated from star</text>
  <text style="stroke:none;fill:black;font-family:sans-serif;font-size:13;text-anchor:end;" transform="matrix(1 0 0 1 3036 1987)">Typeset at 100 points</text>
  <text style="stroke:none;fill:black;font-family:sans-serif;font-size:13;" transform="matrix(1 0 0 1 263 726)">Small</text>
  <text style="stroke:none;fill:black;font-family:sans-serif;font-size:13;" transform="matrix(1 0 0 1 263 1156)">Medium</text>
  <text style="stroke:none;fill:black;font-family:sans-serif;font-size:13;" transform="matrix(1 0 0 1 263 1586)">Large</text>
 </g>
 <g id="Guides">
  <g id="H-reference" style="fill:#27AAE1;stroke:none;" transform="matrix(1 0 0 1 339 696)">
   <path d="M0.993654 0L3.63775 0L29.3281-67.1323L30.0303-67.1323L30.0303-70.459L28.1226-70.459ZM11.6885-24.4799L46.9815-24.4799L46.2315-26.7285L12.4385-26.7285ZM55.1196 0L57.7637 0L30.6382-70.459L29.4326-70.459L29.4326-67.1323Z"/>
  </g>
  <line id="Baseline-S" style="fill:none;stroke:#27AAE1;opacity:1;stroke-width:0.5;" x1="263" x2="3036" y1="696" y2="696"/>
  <line id="Capline-S" style="fill:none;stroke:#27AAE1;opacity:1;stroke-width:0.5;" x1="263" x2="3036" y1="625.541" y2="625.541"/>
  <g id="H-reference" style="fill:#27AAE1;stroke:none;" transform="matrix(1 0 0 1 339 1126)">
   <path d="M0.993654 0L3.63775 0L29.3281-67.1323L30.0303-67.1323L30.0303-70.459L28.1226-70.459ZM11.6885-24.4799L46.9815-24.4799L46.2315-26.7285L12.4385-26.7285ZM55.1196 0L57.7637 0L30.6382-70.459L29.4326-70.459L29.4326-67.1323Z"/>
  </g>
  <line id="Baseline-M" style="fill:none;stroke:#27AAE1;opacity:1;stroke-width:0.5;" x1="263" x2="3036" y1="1126" y2="1126"/>
  <line id="Capline-M" style="fill:none;stroke:#27AAE1;opacity:1;stroke-width:0.5;" x1="263" x2="3036" y1="1055.54" y2="1055.54"/>
  <g id="H-reference" style="fill:#27AAE1;stroke:none;" transform="matrix(1 0 0 1 339 1556)">
   <path d="M0.993654 0L3.63775 0L29.3281-67.1323L30.0303-67.1323L30.0303-70.459L28.1226-70.459ZM11.6885-24.4799L46.9815-24.4799L46.2315-26.7285L12.4385-26.7285ZM55.1196 0L57.7637 0L30.6382-70.459L29.4326-70.459L29.4326-67.1323Z"/>
  </g>
  <line id="Baseline-L" style="fill:none;stroke:#27AAE1;opacity:1;stroke-width:0.5;" x1="263" x2="3036" y1="1556" y2="1556"/>
  <line id="Capline-L" style="fill:none;stroke:#27AAE1;opacity:1;stroke-width:0.5;" x1="263" x2="3036" y1="1485.54" y2="1485.54"/>
  <line id="left-margin" style="fill:none;stroke:#00AEEF;stroke-width:0.5;opacity:1.0;" x1="1385.68" x2="1385.68" y1="1030.79" y2="1150.12"/>
  <line id="right-margin" style="fill:none;stroke:#00AEEF;stroke-width:0.5;opacity:1.0;" x1="1514.01" x2="1514.01" y1="1030.79" y2="1150.12"/>
 </g>
 <g id="Symbols">
  <g id="Black-L" transform="matrix(1 0 0 1 2846.39 1556)">
   <path d="M41.3441 28.3324C45.5771 31.5555 50.7383 30.6256 56.2132 26.5799L87.0109 3.95861L117.771 26.5799C123.285 30.6256 128.446 31.5555 132.679 28.3324C136.831 25.1885 137.685 19.9493 135.522 13.7166L123.319-22.4125L154.377-44.6573C159.852-48.5446 162.323-53.2137 160.603-58.236C158.904-63.2179 154.217-65.5957 147.55-65.5165L109.524-65.1984L97.9558-101.625C95.8921-108.052 92.2525-111.73 87.0109-111.73C81.7913-111.73 78.1505-108.052 76.0672-101.625L64.4995-65.1984L26.4148-65.5165C19.8056-65.5957 15.1389-63.2179 13.4201-58.2944C11.6625-53.2137 14.1903-48.5446 19.6456-44.6573L50.7042-22.4125L38.5015 13.7166C36.3378 19.9493 37.1916 25.1885 41.3441 28.3324ZM59.2868 3.71312C59.204 3.61069 59.148 3.52787 59.2296 3.26101L69.2787-22.9487C71.0918-28.0949 71.0778-29.939 66.0548-33.1928L42.5799-48.5883C42.3935-48.714 42.3107-48.8552 42.3327-48.9588C42.3547-49.0625 42.4971-49.1209 42.764-49.1209L70.7762-47.7422C76.2572-47.6045 78.0729-48.6076 79.4772-53.9123L86.7441-80.9698C86.8257-81.2366 86.9073-81.3206 87.0109-81.3206C87.1146-81.3206 87.1962-81.2366 87.279-80.9698L94.5459-53.9123C95.9502-48.6076 97.7867-47.6045 103.326-47.7422L131.317-49.1209C131.584-49.1209 131.727-49.0625 131.749-48.9588C131.771-48.8552 131.688-48.7724 131.502-48.5883L107.968-33.1344C103.004-29.8806 102.931-28.0949 104.764-22.9487L114.793 3.26101C114.875 3.52787 114.819 3.61069 114.736 3.71312C114.653 3.81555 114.55 3.71312 114.363 3.60829L92.4893-14.0385C88.0544-17.4884 85.9894-17.4884 81.5338-14.0385L59.6805 3.60829C59.494 3.71312 59.3904 3.81555 59.2868 3.71312Z"/>
  </g>
  <g id="Heavy-L" transform="matrix(1 0 0 1 2550.75 1556)">
   <path d="M40.9162 27.7152C44.7443 30.6245 49.4052 29.757 54.472 26.0245L85.9327 2.92613L117.379 26.0245C122.466 29.757 127.127 30.6245 130.955 27.7152C134.703 24.8807 135.483 20.1505 133.469 14.3624L121.034-22.5708L152.76-45.3198C157.827-48.9026 160.067-53.1304 158.515-57.6663C156.993-62.1475 152.752-64.3156 146.57-64.2408L107.699-63.936L95.8677-101.144C93.9585-107.09 90.674-110.418 85.9327-110.418C81.2271-110.418 77.9371-107.09 76.0033-101.144L64.1725-63.936L25.2565-64.2408C19.1189-64.3156 14.9023-62.1475 13.3561-57.711C11.7899-53.1304 14.0684-48.9026 19.1106-45.3198L50.8371-22.5708L38.4022 14.3624C36.388 20.1505 37.1684 24.8807 40.9162 27.7152ZM56.6125 6.18543C56.5209 6.06922 56.4875 5.97757 56.5735 5.68367L67.2441-22.9812C68.8146-27.464 68.6947-29.3147 64.3583-32.1522L38.9158-49.1211C38.7023-49.2787 38.6106-49.415 38.6464-49.5368C38.6822-49.6587 38.8241-49.7033 39.118-49.7033L69.6675-48.4978C74.4394-48.3783 76.1972-49.3869 77.4553-54.0193L85.6388-83.4366C85.7248-83.7305 85.8108-83.8277 85.9327-83.8277C86.0545-83.8277 86.1405-83.7305 86.2322-83.4366L94.4156-54.0193C95.6738-49.3869 97.4617-48.3783 102.278-48.4978L132.798-49.7033C133.091-49.7033 133.233-49.6587 133.269-49.5368C133.305-49.415 133.213-49.3233 133-49.1211L107.513-32.1076C103.221-29.2701 103.056-27.464 104.651-22.9812L115.297 5.68367C115.383 5.97757 115.35 6.06922 115.258 6.18543C115.167 6.30165 115.045 6.18543 114.831 6.05799L90.8403-12.9449C86.996-15.9465 84.9051-15.9465 81.0307-12.9449L57.0697 6.05799C56.8562 6.18543 56.7343 6.30165 56.6125 6.18543Z"/>
  </g>
  <g id="Bold-L" transform="matrix(1 0 0 1 2255.41 1556)">
   <path d="M40.3785 26.9096C43.6922 29.4197 47.7159 28.6514 52.2458 25.3256L84.5659 1.61323L116.895 25.3256C121.429 28.6514 125.453 29.4197 128.767 26.9096C132 24.4667 132.696 20.3891 130.881 15.1839L118.154-22.7854L150.74-46.1866C155.27-49.378 157.203-53.0454 155.866-56.9594C154.567-60.8108 150.901-62.7177 145.356-62.6506L105.395-62.3686L93.2187-100.582C91.509-105.899 88.67-108.775 84.5659-108.775C80.513-108.775 77.6608-105.899 75.9263-100.582L63.7504-62.3686L23.76-62.6506C18.2437-62.7177 14.6028-60.8108 13.2792-56.9886C11.9512-53.0454 13.8999-49.378 18.405-46.1866L50.9911-22.7854L38.2644 15.1839C36.4495 20.3891 37.1452 24.4667 40.3785 26.9096ZM53.2784 9.22141C53.1715 9.08978 53.1687 8.9829 53.2624 8.65073L64.6791-23.0122C65.9648-26.7101 65.7291-28.5387 62.2008-30.8837L34.3672-49.7893C34.1154-49.9854 34.0085-50.1215 34.0598-50.2664C34.111-50.4112 34.2603-50.4404 34.5924-50.4404L68.24-49.4501C72.1731-49.3537 73.8393-50.355 74.9206-54.1873L84.2337-86.4798C84.3274-86.812 84.421-86.9321 84.5659-86.9321C84.7108-86.9321 84.8044-86.812 84.9113-86.4798L94.2245-54.1873C95.3058-50.355 97.0099-49.3537 100.972-49.4501L134.582-50.4404C134.914-50.4404 135.063-50.4112 135.114-50.2664C135.166-50.1215 135.059-50.0146 134.807-49.7893L106.944-30.8545C103.445-28.5095 103.18-26.7101 104.491-23.0122L115.883 8.65073C115.976 8.9829 115.974 9.08978 115.867 9.22141C115.76 9.35305 115.615 9.22141 115.363 9.06332L88.7815-11.585C85.63-14.0556 83.5531-14.0556 80.3636-11.585L53.8198 9.06332C53.5681 9.22141 53.4232 9.35305 53.2784 9.22141Z"/>
  </g>
  <g id="Semibold-L" transform="matrix(1 0 0 1 1959.63 1556)">
   <path d="M40.0079 26.3543C42.9669 28.5891 46.5514 27.8892 50.7111 24.8438L83.6237 0.708124L116.561 24.8438C120.714 27.8892 124.299 28.5891 127.258 26.3543C130.137 24.1814 130.774 20.5535 129.096 15.7503L116.169-22.9333L149.347-46.7842C153.507-49.7058 155.228-52.9867 154.04-56.4721C152.894-59.8893 149.625-61.6162 144.519-61.5542L103.806-61.288L91.3925-100.194C89.8203-105.078 87.2885-107.641 83.6237-107.641C80.0207-107.641 77.4704-105.078 75.8733-100.194L63.4594-61.288L22.7284-61.5542C17.6403-61.6162 14.3964-59.8893 13.2262-56.4907C12.0623-52.9867 13.7837-49.7058 17.9186-46.7842L51.0973-22.9333L38.1694 15.7503C36.4919 20.5535 37.1292 24.1814 40.0079 26.3543ZM50.9798 11.3144C50.8624 11.1721 50.8808 11.0548 50.9797 10.6962L62.9107-23.0336C64.0001-26.1904 63.6847-28.0037 60.7135-30.0092L31.2314-50.25C30.9533-50.4726 30.8359-50.6086 30.8977-50.7693C30.9596-50.9301 31.114-50.9486 31.4726-50.9486L67.2559-50.1066C70.6108-50.0261 72.2137-51.0224 73.1731-54.3031L83.2651-88.5778C83.364-88.9363 83.4629-89.0722 83.6237-89.0722C83.7844-89.0722 83.8833-88.9363 84.0007-88.5778L94.0927-54.3031C95.052-51.0224 96.6984-50.0261 100.072-50.1066L135.812-50.9486C136.17-50.9486 136.325-50.9301 136.387-50.7693C136.448-50.6086 136.331-50.4912 136.053-50.25L106.552-29.9907C103.6-27.9852 103.266-26.1904 104.38-23.0336L116.286 10.6962C116.385 11.0548 116.403 11.1721 116.286 11.3144C116.169 11.4567 116.008 11.3144 115.73 11.1352L87.3622-10.6475C84.6882-12.7521 82.6209-12.7521 79.9036-10.6475L51.5794 11.1352C51.3013 11.3144 51.1406 11.4567 50.9798 11.3144Z"/>
  </g>
  <g id="Medium-L" transform="matrix(1 0 0 1 1663.64 1556)">
   <path d="M39.7268 25.9332C42.417 27.9594 45.6683 27.3113 49.5474 24.4785L82.9092 0.0218369L116.308 24.4785C120.173 27.3113 123.424 27.9594 126.114 25.9332C128.724 23.965 129.317 20.6782 127.744 16.1797L114.663-23.0455L148.291-47.2373C152.17-49.9543 153.731-52.9422 152.655-56.1026C151.626-59.1906 148.658-60.7809 143.884-60.723L102.602-60.4687L90.0078-99.9007C88.5399-104.456 86.241-106.782 82.9092-106.782C79.6474-106.782 77.326-104.456 75.8331-99.9007L63.2387-60.4687L21.9462-60.723C17.1828-60.7809 14.2398-59.1906 13.186-56.1131C12.1466-52.9422 13.6957-49.9543 17.5497-47.2373L51.1778-23.0455L38.0973 16.1797C36.524 20.6782 37.1171 23.965 39.7268 25.9332ZM49.2369 12.9014C49.1116 12.7511 49.146 12.6257 49.2489 12.2472L61.5699-23.0498C62.5104-25.7963 62.1345-27.5981 59.5858-29.3462L28.8537-50.5993C28.5556-50.842 28.4302-50.9779 28.5001-51.1507C28.5701-51.3235 28.7284-51.334 29.1069-51.334L66.5097-50.6044C69.4261-50.5359 70.9812-51.5284 71.8481-54.3909L82.5307-90.1686C82.6335-90.5471 82.7364-90.6949 82.9092-90.6949C83.082-90.6949 83.1849-90.5471 83.3102-90.1686L93.9927-54.3909C94.8597-51.5284 96.4622-50.5359 99.3892-50.6044L136.744-51.334C137.123-51.334 137.281-51.3235 137.351-51.1507C137.421-50.9779 137.296-50.8525 136.998-50.5993L106.255-29.3356C103.717-27.5876 103.33-25.7963 104.296-23.0498L116.592 12.2472C116.695 12.6257 116.729 12.7511 116.604 12.9014C116.479 13.0517 116.306 12.9014 116.008 12.7061L86.286-9.93666C83.9742-11.7637 81.9142-11.7637 79.5549-9.93666L49.8807 12.7061C49.5825 12.9014 49.4097 13.0517 49.2369 12.9014Z"/>
  </g>
  <g id="Regular-L" transform="matrix(1 0 0 1 1367.85 1556)">
   <path d="M39.3603 25.384C41.6997 27.1379 44.5165 26.5575 48.0295 24.0019L81.9773-0.873321L115.978 24.0019C119.466 26.5575 122.283 27.1379 124.622 25.384C126.881 23.6828 127.416 20.8408 125.979 16.7398L112.699-23.1918L146.914-47.8284C150.427-50.2784 151.778-52.8842 150.849-55.6206C149.972-58.2792 147.396-59.6915 143.056-59.6387L101.031-59.4L88.2016-99.5176C86.8698-103.644 84.8746-105.661 81.9773-105.661C79.1605-105.661 77.1376-103.644 75.7807-99.5176L62.9509-59.4L20.9258-59.6387C16.5861-59.6915 14.0356-58.2792 13.1336-55.6206C12.2566-52.8842 13.5808-50.2784 17.0686-47.8284L51.2828-23.1918L38.0033 16.7398C36.566 20.8408 37.1012 23.6828 39.3603 25.384ZM46.9637 14.9714C46.8279 14.8105 46.8832 14.6748 46.9913 14.2702L59.821-23.071C60.5674-25.2823 60.1125-27.069 58.1148-28.4813L25.7524-51.055C25.4282-51.3239 25.2924-51.4596 25.3729-51.6481C25.4533-51.8366 25.6167-51.8366 26.0213-51.8366L65.5363-51.2537C67.8809-51.2009 69.3736-52.1885 70.1199-54.5054L81.5727-92.2435C81.6807-92.6481 81.7888-92.8115 81.9773-92.8115C82.1658-92.8115 82.2739-92.6481 82.4096-92.2435L93.8624-54.5054C94.6087-52.1885 96.1542-51.2009 98.4987-51.2537L137.961-51.8366C138.366-51.8366 138.529-51.8366 138.609-51.6481C138.69-51.4596 138.554-51.3239 138.23-51.055L105.868-28.4813C103.87-27.069 103.415-25.2823 104.186-23.071L116.991 14.2702C117.099 14.6748 117.154 14.8105 117.019 14.9714C116.883 15.1322 116.694 14.9714 116.37 14.7552L84.8822-9.00946C83.0428-10.4745 80.9923-10.4745 79.1001-9.00946L47.6649 14.7552C47.3407 14.9714 47.1522 15.1322 46.9637 14.9714Z"/>
  </g>
  <g id="Light-L" transform="matrix(1 0 0 1 1072.28 1556)">
   <path d="M38.9404 24.5633C40.8409 25.9737 43.1042 25.6033 46.0446 23.4485L80.8322-1.99935L115.653 23.4485C118.607 25.6033 120.87 25.9737 122.771 24.5633C124.591 23.1866 125.107 20.9363 123.899 17.446L110.39-23.459L145.406-48.7254C148.346-50.8128 149.355-52.9415 148.616-55.1244C147.911-57.2868 145.888-58.5082 142.217-58.4745L99.161-58.293L85.9686-99.3458C84.8277-102.823 83.176-104.402 80.8322-104.402C78.5688-104.402 76.8704-102.823 75.7425-99.3458L62.5502-58.293L19.4945-58.4745C15.8227-58.5082 13.7875-57.2868 13.0954-55.1244C12.3902-52.9415 13.3517-50.8128 16.3052-48.7254L51.321-23.459L37.8125 17.446C36.6041 20.9363 37.1203 23.1866 38.9404 24.5633ZM44.5207 16.899C44.3468 16.7381 44.4403 16.5642 44.5675 16.1023L57.7598-23.0328C58.4107-24.9388 57.975-26.5156 56.2635-27.737L22.5461-51.5703C22.1646-51.8583 21.9907-52.0322 22.0711-52.2397C22.1515-52.4473 22.3722-52.4473 22.8341-52.4473L64.2004-52.0171C66.2205-51.9834 67.5223-52.8756 68.1732-54.8489L80.3703-94.2665C80.4975-94.7284 80.6246-94.9491 80.8322-94.9491C81.0398-94.9491 81.1669-94.7284 81.3408-94.2665L93.538-54.8489C94.1889-52.8756 95.5244-51.9834 97.5444-52.0171L138.877-52.4473C139.339-52.4473 139.56-52.4473 139.64-52.2397C139.72-52.0322 139.547-51.8583 139.165-51.5703L105.448-27.737C103.736-26.5156 103.3-24.9388 103.938-23.0328L117.144 16.1023C117.271 16.5642 117.364 16.7381 117.19 16.899C117.017 17.0598 116.809 16.899 116.427 16.6447L83.3554-8.03611C81.745-9.29118 79.9998-9.29118 78.3557-8.03611L45.3174 16.6447C44.9359 16.899 44.7283 17.0598 44.5207 16.899Z"/>
  </g>
  <g id="Thin-L" transform="matrix(1 0 0 1 777.069 1556)">
   <path d="M38.3851 23.4779C39.705 24.434 41.2363 24.3412 43.4195 22.7165L79.3177-3.48862L115.224 22.7165C117.471 24.3412 119.002 24.434 120.322 23.4779C121.562 22.5303 122.053 21.0625 121.147 18.3799L107.336-23.8124L143.412-49.9117C145.595-51.5196 146.149-53.0172 145.662-54.4681C145.184-55.9742 143.894-56.9432 141.106-56.9347L96.6873-56.829L83.0154-99.1186C82.1268-101.738 80.9295-102.736 79.3177-102.736C77.7863-102.736 76.517-101.738 75.692-99.1186L62.0201-56.829L17.6013-56.9347C14.813-56.9432 13.4594-55.9742 13.0449-54.4681C12.5669-53.0172 13.0488-51.5196 15.2956-49.9117L51.3715-23.8124L37.56 18.3799C36.6546 21.0625 37.1456 22.5303 38.3851 23.4779ZM41.2898 19.4484C41.0654 19.2876 41.2094 19.0632 41.3618 18.5256L55.0337-22.9823C55.5584-24.4844 55.1479-25.7835 53.815-26.7525L18.3055-52.2518C17.8482-52.565 17.6239-52.7894 17.7043-53.0222C17.7847-53.2551 18.0811-53.2551 18.6187-53.2551L62.4335-53.0267C64.0244-53.0183 65.0738-53.7843 65.5985-55.3033L78.7801-96.9422C78.9325-97.4798 79.0849-97.7762 79.3177-97.7762C79.5505-97.7762 79.7029-97.4798 79.9273-96.9422L93.1088-55.3033C93.6335-53.7843 94.6914-53.0183 96.2824-53.0267L140.089-53.2551C140.626-53.2551 140.923-53.2551 141.003-53.0222C141.084-52.7894 140.859-52.565 140.402-52.2518L104.892-26.7525C103.559-25.7835 103.149-24.4844 103.61-22.9823L117.346 18.5256C117.498 19.0632 117.642 19.2876 117.418 19.4484C117.193 19.6093 116.96 19.4484 116.503 19.1436L81.3361-6.74877C80.0285-7.72619 78.6873-7.72619 77.3713-6.74877L42.2126 19.1436C41.7554 19.4484 41.5226 19.6093 41.2898 19.4484Z"/>
  </g>
  <g id="Ultralight-L" transform="matrix(1 0 0 1 481.127 1556)">
   <path d="M38.1006 22.922C39.1232 23.6453 40.2796 23.6947 42.0749 22.3415L78.542-4.25141L115.005 22.3415C116.889 23.6947 118.046 23.6453 119.068 22.922C120.01 22.1942 120.488 21.1271 119.738 18.8583L105.772-23.9934L142.39-50.5194C144.186-51.8816 144.507-53.056 144.15-54.132C143.788-55.3019 142.873-56.1416 140.537-56.1461L95.4203-56.0792L81.5027-99.0023C80.7434-101.182 79.7788-101.883 78.542-101.883C77.3855-101.883 76.336-101.182 75.6662-99.0023L61.7486-56.0792L16.6317-56.1461C14.2959-56.1416 13.2913-55.3019 13.019-54.132C12.6574-53.056 12.8937-51.8816 14.7784-50.5194L51.3973-23.9934L37.4308 18.8583C36.6805 21.1271 37.1585 22.1942 38.1006 22.922ZM39.6349 20.7542C39.3847 20.5934 39.5545 20.3431 39.7198 19.7667L53.6374-22.9565C54.0975-24.2517 53.6999-25.4086 52.5609-26.2483L16.1334-52.6009C15.6374-52.927 15.3872-53.1773 15.4676-53.423C15.548-53.6688 15.8832-53.6688 16.4596-53.6688L61.5284-53.5439C62.8996-53.5484 63.8197-54.2497 64.2798-55.536L77.9656-98.3126C78.1309-98.889 78.2962-99.2242 78.542-99.2242C78.7877-99.2242 78.9531-98.889 79.2033-98.3126L92.8891-55.536C93.3491-54.2497 94.2647-53.5484 95.6359-53.5439L140.709-53.6688C141.286-53.6688 141.621-53.6688 141.701-53.423C141.782-53.1773 141.531-52.927 141.035-52.6009L104.608-26.2483C103.469-25.4086 103.071-24.2517 103.442-22.9565L117.449 19.7667C117.614 20.3431 117.784 20.5934 117.534 20.7542C117.284 20.9151 117.038 20.7542 116.542 20.4235L80.3018-6.08941C79.1494-6.92461 78.015-6.92461 76.8671-6.08941L40.6224 20.4235C40.1264 20.7542 39.8807 20.9151 39.6349 20.7542Z"/>
  </g>
  <g id="Black-M" transform="matrix(1 0 0 1 2865.22 1126)">
   <path d="M32.342 14.4338C35.9099 17.1541 40.2634 16.4085 44.7783 13.0592L68.1825-4.13405L91.5352 13.0592C96.1014 16.4085 100.455 17.1541 104.023 14.4338C107.528 11.7761 108.25 7.35975 106.477 2.23168L97.1912-25.1998L120.788-42.0858C125.303-45.31 127.369-49.2419 125.918-53.476C124.472-57.6989 120.534-59.6953 115.042-59.6327L86.1675-59.3826L77.3825-87.0586C75.6768-92.3638 72.5984-95.4541 68.1825-95.4541C63.7719-95.4541 60.6937-92.3638 58.9823-87.0586L50.1973-59.3826L21.2662-59.6327C15.8309-59.6953 11.8985-57.6989 10.4469-53.5331C8.94405-49.2419 11.0676-45.31 15.5767-42.0858L39.1737-25.1998L29.8882 2.23168C28.1145 7.35975 28.8364 11.7761 32.342 14.4338ZM47.8993-6.92263C47.8376-6.99014 47.7799-7.05188 47.8419-7.24316L55.1424-25.6819C56.7427-30.1976 56.8254-31.5923 52.3827-34.4451L35.7032-45.1911C35.5742-45.2635 35.5124-45.3824 35.5177-45.4496C35.5229-45.5168 35.6414-45.5739 35.8327-45.5739L55.605-44.3776C60.4169-44.258 61.8476-45.0174 63.0482-49.6583L67.9913-68.8204C68.0533-69.0117 68.1153-69.0731 68.1825-69.0731C68.2498-69.0731 68.3118-69.0117 68.3735-68.8204L73.3166-49.6583C74.5172-45.0174 75.9534-44.258 80.8224-44.3776L100.589-45.5739C100.78-45.5739 100.899-45.5168 100.904-45.4496C100.909-45.3824 100.848-45.3206 100.719-45.1911L83.9821-34.388C79.5965-31.5352 79.6221-30.1976 81.2282-25.6819L88.5229-7.24316C88.5849-7.05188 88.5272-6.99014 88.4655-6.92263C88.4037-6.85512 88.3365-6.92263 88.2075-6.98958L72.8657-19.62C68.9533-22.6496 67.417-22.6496 63.4991-19.62L48.1627-6.98958C48.0338-6.92263 47.9665-6.85512 47.8993-6.92263Z"/>
  </g>
  <g id="Heavy-M" transform="matrix(1 0 0 1 2569.45 1126)">
   <path d="M31.9623 13.9062C35.175 16.3513 39.0905 15.6474 43.2592 12.5673L67.2341-5.03949L91.1818 12.5673C95.38 15.6474 99.2955 16.3513 102.508 13.9062C105.659 11.521 106.311 7.54771 104.662 2.7979L95.1705-25.3299L119.346-42.6507C123.515-45.6107 125.387-49.1552 124.083-52.9649C122.795-56.744 119.24-58.5531 114.161-58.493L84.556-58.2506L75.5473-86.6044C73.9749-91.4992 71.212-94.2882 67.2341-94.2882C63.2749-94.2882 60.5097-91.4992 58.9233-86.6044L49.9145-58.2506L20.2659-58.493C15.2301-58.5531 11.6901-56.744 10.3879-53.0085C9.05627-49.1552 10.9695-45.6107 15.1241-42.6507L39.3-25.3299L29.8088 2.7979C28.16 7.54771 28.812 11.521 31.9623 13.9062ZM45.5104-4.6836C45.4436-4.76459 45.4045-4.83144 45.4691-5.04386L53.3436-25.7172C54.7156-29.6126 54.693-31.0331 50.895-33.4965L32.417-45.6644C32.2668-45.7663 32.2-45.8768 32.2187-45.96C32.2374-46.0433 32.3501-46.0869 32.5625-46.0869L54.6445-45.0459C58.7931-44.9422 60.1847-45.7159 61.2513-49.7313L67.0217-71.0453C67.0863-71.2577 67.1509-71.3268 67.2341-71.3268C67.3174-71.3268 67.382-71.2577 67.4488-71.0453L73.2192-49.7313C74.2858-45.7159 75.6938-44.9422 79.886-45.0459L101.952-46.0869C102.164-46.0869 102.277-46.0433 102.295-45.96C102.314-45.8768 102.247-45.8099 102.097-45.6644L83.5755-33.4529C79.8212-30.9894 79.755-29.6126 81.141-25.7172L89.0015-5.04386C89.066-4.83144 89.027-4.76459 88.9601-4.6836C88.8933-4.60262 88.81-4.6836 88.6599-4.76914L71.3945-18.6407C68.0383-21.2514 66.4486-21.2514 63.076-18.6407L45.827-4.76914C45.6769-4.6836 45.5937-4.60262 45.5104-4.6836Z"/>
  </g>
  <g id="Bold-M" transform="matrix(1 0 0 1 2273.8 1126)">
   <path d="M31.5376 13.3159C34.3529 15.4533 37.7785 14.7959 41.5599 12.0171L66.1732-6.05235L90.7865 12.0171C94.573 14.7959 97.9986 15.4533 100.814 13.3159C103.567 11.2356 104.141 7.75796 102.632 3.4313L92.9101-25.4755L117.734-43.2825C121.515-45.947 123.17-49.0583 122.03-52.3931C120.918-55.6757 117.794-57.2754 113.176-57.2182L82.7533-56.9844L73.4942-86.0963C72.0711-90.5321 69.6611-92.984 66.1732-92.984C62.719-92.984 60.3039-90.5321 58.8572-86.0963L49.5982-56.9844L19.147-57.2182C14.558-57.2754 11.4569-55.6757 10.3219-52.4216C9.1818-49.0583 10.8598-45.947 14.6178-43.2825L39.4414-25.4755L29.7199 3.4313C28.211 7.75796 28.7847 11.2356 31.5376 13.3159ZM42.8381-2.17893C42.7655-2.27499 42.7472-2.34756 42.8147-2.58363L51.3314-25.7567C52.4479-28.9582 52.3076-30.4075 49.2308-32.4353L28.7409-46.1938C28.5671-46.3287 28.4945-46.4299 28.5283-46.5311C28.562-46.6323 28.6683-46.6608 28.9044-46.6608L53.57-45.7933C56.9767-45.7076 58.3246-46.4971 59.2412-49.813L65.9371-73.5341C66.0045-73.7702 66.072-73.8479 66.1732-73.8479C66.2744-73.8479 66.3418-73.7702 66.4144-73.5341L73.1103-49.813C74.0269-46.4971 75.4035-45.7076 78.8386-45.7933L103.476-46.6608C103.712-46.6608 103.818-46.6323 103.852-46.5311C103.886-46.4299 103.813-46.3573 103.639-46.1938L83.1207-32.4068C80.0725-30.3789 79.9036-28.9582 81.0435-25.7567L89.5368-2.58363C89.6043-2.34756 89.586-2.27499 89.5134-2.17893C89.4409-2.08287 89.3397-2.17893 89.1659-2.28526L69.7488-17.5452C67.0148-19.6873 65.3653-19.6873 62.6027-17.5452L43.2142-2.28526C43.0405-2.17893 42.9393-2.08287 42.8381-2.17893Z"/>
  </g>
  <g id="Semibold-M" transform="matrix(1 0 0 1 1977.82 1126)">
   <path d="M31.2449 12.909C33.7861 14.8343 36.874 14.2089 40.3884 11.6377L65.4418-6.75061L90.514 11.6377C94.0166 14.2089 97.1045 14.8343 99.6458 12.909C102.125 11.0389 102.645 7.90291 101.232 3.86796L91.3518-25.5758L116.622-43.7181C120.136-46.1789 121.641-48.9915 120.614-51.9989C119.624-54.9393 116.796-56.3945 112.497-56.3393L81.5105-56.1114L72.0789-85.7461C70.7586-89.8654 68.5919-92.0849 65.4418-92.0849C62.3357-92.0849 60.162-89.8654 58.8117-85.7461L49.3801-56.1114L18.3756-56.3393C14.0946-56.3945 11.2962-54.9393 10.2764-52.017C9.26835-48.9915 10.7842-46.1789 14.2687-43.7181L39.5389-25.5758L29.6586 3.86796C28.2461 7.90291 28.7659 11.0389 31.2449 12.909ZM40.9958-0.45222C40.9193-0.558673 40.9153-0.635189 40.9847-0.887568L49.9442-25.784C50.8846-28.5071 50.6631-29.9762 48.0835-31.7038L26.2066-46.5588C26.0165-46.7165 25.94-46.8112 25.9842-46.9247C26.0283-47.0383 26.1301-47.0564 26.3825-47.0564L52.8293-46.3087C55.7244-46.2353 57.0422-47.0357 57.8554-49.8692L65.1894-75.2499C65.2588-75.5023 65.3282-75.5859 65.4418-75.5859C65.5553-75.5859 65.6247-75.5023 65.7013-75.2499L73.0352-49.8692C73.8485-47.0357 75.2033-46.2353 78.1165-46.3087L104.526-47.0564C104.779-47.0564 104.88-47.0383 104.925-46.9247C104.969-46.8112 104.892-46.7346 104.702-46.5588L82.8072-31.6856C80.2457-29.958 80.0061-28.5071 80.9763-25.784L89.9059-0.887568C89.9753-0.635189 89.9714-0.558673 89.8949-0.45222C89.8184-0.345767 89.7048-0.45222 89.5147-0.572884L68.6142-16.79C66.3092-18.6091 64.6185-18.6091 62.2764-16.79L41.413-0.572884C41.2229-0.45222 41.1093-0.345767 40.9958-0.45222Z"/>
  </g>
  <g id="Medium-M" transform="matrix(1 0 0 1 1681.66 1126)">
   <path d="M31.0229 12.6004C33.3564 14.3648 36.1882 13.7638 39.5002 11.3501L64.8872-7.28007L90.3074 11.3501C93.5948 13.7638 96.4265 14.3648 98.7601 12.6004C101.031 10.8897 101.51 8.01282 100.171 4.19905L90.1702-25.6519L115.779-44.0484C119.091-46.3547 120.482-48.9408 119.541-51.7C118.643-54.3809 116.04-55.7267 111.982-55.673L80.5682-55.4495L71.0057-85.4805C69.7634-89.3599 67.7813-91.4031 64.8872-91.4031C62.0451-91.4031 60.0544-89.3599 58.7772-85.4805L49.2148-55.4495L17.7907-55.673C13.7433-55.7267 11.1743-54.3809 10.2419-51.7103C9.33397-48.9408 10.7269-46.3547 14.004-44.0484L39.6128-25.6519L29.6121 4.19905C28.2727 8.01282 28.7516 10.8897 31.0229 12.6004ZM39.5989 0.857042C39.5194 0.74271 39.5263 0.663204 39.5972 0.39846L48.8924-25.8046C49.6992-28.165 49.4162-29.6492 47.2136-31.149L24.285-46.8355C24.0826-47.0105 24.0031-47.1003 24.0551-47.2232C24.1071-47.3461 24.2055-47.3564 24.4703-47.3564L52.2677-46.6994C54.7749-46.6354 56.0698-47.4441 56.8047-49.9119L64.6224-76.5509C64.6933-76.8156 64.7643-76.9037 64.8872-76.9037C65.0101-76.9037 65.081-76.8156 65.1605-76.5509L72.9783-49.9119C73.7131-47.4441 75.0515-46.6354 77.569-46.6994L105.323-47.3564C105.588-47.3564 105.686-47.3461 105.738-47.2232C105.79-47.1003 105.711-47.0208 105.508-46.8355L82.5694-31.1388C80.3771-29.6389 80.0838-28.165 80.9254-25.8046L90.1858 0.39846C90.2567 0.663204 90.2636 0.74271 90.1841 0.857042C90.1046 0.971375 89.9817 0.857042 89.7792 0.725509L67.754-16.2173C65.7741-17.7915 64.0523-17.7915 62.029-16.2173L40.0472 0.725509C39.8447 0.857042 39.7218 0.971375 39.5989 0.857042Z"/>
  </g>
  <g id="Regular-M" transform="matrix(1 0 0 1 1385.68 1126)">
   <path d="M30.7333 12.198C32.7959 13.7526 35.2936 13.1833 38.3416 10.975L64.1638-7.97066L90.0378 10.975C93.0445 13.1833 95.5423 13.7526 97.6049 12.198C99.6052 10.6951 100.031 8.15617 98.7867 4.63092L88.629-25.7511L114.679-44.4792C117.727-46.584 118.97-48.8747 118.141-51.3101C117.364-53.6526 115.053-54.8555 111.31-54.8037L79.339-54.5862L69.606-85.134C68.4654-88.7005 66.7238-90.5139 64.1638-90.5139C61.6661-90.5139 59.914-88.7005 58.7322-85.134L48.9991-54.5862L17.0278-54.8037C13.285-54.8555 11.0154-53.6526 10.1969-51.3101C9.41956-48.8747 10.6521-46.584 13.6588-44.4792L39.7092-25.7511L29.5515 4.63092C28.3074 8.15617 28.733 10.6951 30.7333 12.198ZM37.7768 2.56478C37.6934 2.44017 37.7145 2.35676 37.7874 2.07589L47.5204-25.8315C48.153-27.7188 47.7898-29.2226 46.0789-30.4255L21.7786-47.1965C21.56-47.394 21.4766-47.4774 21.5389-47.6125C21.6012-47.7477 21.6952-47.7477 21.9761-47.7477L51.5351-47.2091C53.5364-47.1573 54.8015-47.9768 55.4341-49.9676L63.8829-78.2478C63.9558-78.5287 64.0287-78.6226 64.1638-78.6226C64.299-78.6226 64.3718-78.5287 64.4552-78.2478L72.904-49.9676C73.5366-47.9768 74.8536-47.1573 76.8549-47.2091L106.362-47.7477C106.643-47.7477 106.737-47.7477 106.799-47.6125C106.862-47.4774 106.778-47.394 106.56-47.1965L82.2593-30.4255C80.5484-29.2226 80.1851-27.7188 80.8589-25.8315L90.5508 2.07589C90.6237 2.35676 90.6448 2.44017 90.5614 2.56478C90.478 2.68939 90.3428 2.56478 90.1242 2.41906L66.6319-15.4704C65.0763-16.725 63.3137-16.725 61.7063-15.4704L38.2657 2.41906C38.0471 2.56478 37.912 2.68939 37.7768 2.56478Z"/>
  </g>
  <g id="Light-M" transform="matrix(1 0 0 1 1089.98 1126)">
   <path d="M30.3569 11.4622C32.0259 12.7088 34.0274 12.3277 36.562 10.4788L63.1372-8.9802L89.7469 10.4788C92.2745 12.3277 94.2761 12.7088 95.9451 11.4622C97.5519 10.2502 97.9603 8.24173 96.9216 5.26402L86.5586-25.9907L113.328-45.2834C115.862-47.0631 116.797-48.9261 116.139-50.8653C115.516-52.7628 113.701-53.7946 110.557-53.76L77.6622-53.5937L67.604-84.98C66.6345-87.9647 65.201-89.3846 63.1372-89.3846C61.1356-89.3846 59.6745-87.9647 58.698-84.98L48.6398-53.5937L15.7445-53.76C12.6006-53.7946 10.7929-52.7628 10.1626-50.8653C9.53934-48.9261 10.4468-47.0631 12.9744-45.2834L39.7434-25.9907L29.3804 5.26402C28.3417 8.24173 28.7501 10.2502 30.3569 11.4622ZM35.5866 4.29298C35.469 4.16837 35.5243 4.05074 35.6143 3.71854L45.6725-25.7973C46.2195-27.4108 45.8733-28.7264 44.4191-29.7582L18.904-47.6585C18.6341-47.8731 18.5164-47.9907 18.5787-48.143C18.641-48.2952 18.7863-48.2952 19.1185-48.2952L50.3373-47.8935C52.0477-47.8588 53.1418-48.5928 53.6888-50.2756L62.805-80.0616C62.8949-80.3938 62.9849-80.5391 63.1372-80.5391C63.2894-80.5391 63.3794-80.3938 63.497-80.0616L72.6131-50.2756C73.1602-48.5928 74.2889-47.8588 75.9993-47.8935L107.183-48.2952C107.516-48.2952 107.661-48.2952 107.723-48.143C107.786-47.9907 107.668-47.8731 107.398-47.6585L81.8828-29.7582C80.4286-28.7264 80.0825-27.4108 80.6365-25.7973L90.6877 3.71854C90.7777 4.05074 90.833 4.16837 90.7154 4.29298C90.5977 4.41759 90.4455 4.29298 90.1756 4.11305L65.263-14.5977C63.9127-15.6642 62.4239-15.6642 61.039-14.5977L36.1611 4.11305C35.8912 4.29298 35.7389 4.41759 35.5866 4.29298Z"/>
  </g>
  <g id="Thin-M" transform="matrix(1 0 0 1 794.618 1126)">
   <path d="M29.859 10.4891C31.0075 11.3283 32.3528 11.1962 34.2084 9.82247L61.7793-10.3154L89.3622 9.82247C91.2562 11.1962 92.6014 11.3283 93.7499 10.4891C94.8362 9.66183 95.222 8.35488 94.4548 6.10135L83.8203-26.3075L111.54-46.3471C113.395-47.6968 113.923-48.9939 113.492-50.2769C113.072-51.5861 111.914-52.3915 109.562-52.3795L75.4444-52.2812L64.9562-84.7764C64.213-86.9916 63.1869-87.8909 61.7793-87.8909C60.4341-87.8909 59.3576-86.9916 58.6527-84.7764L48.1646-52.2812L14.0472-52.3795C11.6953-52.3915 10.4987-51.5861 10.1174-50.2769C9.69775-48.9939 10.1752-47.6968 12.0692-46.3471L39.7887-26.3075L29.1541 6.10135C28.3869 8.35488 28.7728 9.66183 29.859 10.4891ZM32.6899 6.57867C32.527 6.45406 32.6276 6.29117 32.7402 5.89108L43.2284-25.7521C43.6623-27.0034 43.3387-28.0701 42.224-28.8756L15.102-48.2695C14.7642-48.5067 14.6013-48.6696 14.6636-48.8445C14.7259-49.0194 14.9391-49.0194 15.3392-49.0194L48.7532-48.7987C50.0788-48.7867 50.9466-49.4075 51.3805-50.6829L61.3792-82.4604C61.4918-82.8605 61.6044-83.0737 61.7793-83.0737C61.9542-83.0737 62.0668-82.8605 62.2297-82.4604L72.2284-50.6829C72.6623-49.4075 73.5421-48.7867 74.8678-48.7987L108.27-49.0194C108.67-49.0194 108.883-49.0194 108.945-48.8445C109.008-48.6696 108.845-48.5067 108.507-48.2695L81.385-28.8756C80.2702-28.0701 79.9467-27.0034 80.3423-25.7521L90.8687 5.89108C90.9813 6.29117 91.0819 6.45406 90.919 6.57867C90.7561 6.70328 90.5812 6.57867 90.2435 6.35348L63.4526-13.4436C62.3739-14.2611 61.2471-14.2611 60.1564-13.4436L33.3775 6.35348C33.0397 6.57867 32.8648 6.70328 32.6899 6.57867Z"/>
  </g>
  <g id="Ultralight-M" transform="matrix(1 0 0 1 498.596 1126)">
   <path d="M29.604 9.99065C30.4859 10.6213 31.495 10.6166 33.0029 9.48633L61.0838-10.9993L89.1652 9.48633C90.7346 10.6166 91.7436 10.6213 92.6256 9.99065C93.4452 9.36045 93.8195 8.41284 93.1914 6.53023L82.4177-26.4698L110.624-46.8918C112.132-48.0213 112.451-49.0287 112.135-49.9755C111.82-50.9833 110.998-51.6729 109.052-51.6724L74.3084-51.6089L63.6-84.672C62.9728-86.4932 62.1552-87.1259 61.0838-87.1259C60.0748-87.1259 59.1953-86.4932 58.6296-84.672L47.9211-51.6089L13.1779-51.6724C11.2317-51.6729 10.348-50.9833 10.0942-49.9755C9.77889-49.0287 10.0361-48.0213 11.6055-46.8918L39.8119-26.4698L29.0382 6.53023C28.4101 8.41284 28.7843 9.36045 29.604 9.99065ZM31.2062 7.74939C31.0201 7.62478 31.1439 7.43871 31.2681 7.00384L41.9765-25.7289C42.3524-26.7948 42.0405-27.734 41.0996-28.4235L13.1547-48.5825C12.7821-48.8313 12.596-49.0174 12.6584-49.2038C12.7207-49.3903 12.9686-49.3903 13.4035-49.3903L47.9418-49.2624C49.0704-49.2619 49.8223-49.8248 50.1982-50.8915L60.649-83.6891C60.7732-84.124 60.8974-84.3719 61.0838-84.3719C61.2703-84.3719 61.3945-84.124 61.5806-83.6891L72.0314-50.8915C72.4073-49.8248 73.1596-49.2619 74.2882-49.2624L108.826-49.3903C109.261-49.3903 109.509-49.3903 109.571-49.2038C109.634-49.0174 109.447-48.8313 109.075-48.5825L81.13-28.4235C80.1891-27.734 79.8771-26.7948 80.1916-25.7289L90.9615 7.00384C91.0857 7.43871 91.2094 7.62478 91.0234 7.74939C90.8373 7.874 90.6508 7.74939 90.2782 7.50101L62.5253-12.8524C61.5856-13.5424 60.6443-13.5424 59.7043-12.8524L31.9518 7.50101C31.5792 7.74939 31.3927 7.874 31.2062 7.74939Z"/>
  </g>
  <g id="Black-S" transform="matrix(1 0 0 1 2879.74 696)">
   <path d="M25.4395 3.80859C28.3203 6.00586 31.8359 5.41992 35.4492 2.73438L53.6621-10.6445L71.8262 2.73438C75.4883 5.41992 79.0039 6.00586 81.8848 3.80859C84.7168 1.66016 85.3027-1.9043 83.8867-6.00586L76.6602-27.3438L95.0195-40.4785C98.6328-43.0664 100.293-46.2402 99.1211-49.6582C97.9492-53.0762 94.7754-54.6875 90.3809-54.6387L67.9199-54.4434L61.084-75.9766C59.7168-80.2246 57.2266-82.7148 53.6621-82.7148C50.0977-82.7148 47.6074-80.2246 46.2402-75.9766L39.4043-54.4434L16.8945-54.6387C12.5488-54.6875 9.375-53.0762 8.20312-49.707C6.98242-46.2402 8.69141-43.0664 12.3047-40.4785L30.6641-27.3438L23.4375-6.00586C22.0215-1.9043 22.6074 1.66016 25.4395 3.80859ZM38.1348-13.623C38.0859-13.6719 38.0371-13.7207 38.0859-13.8672L43.6523-27.7344C44.9707-31.4453 45.0684-32.5195 41.4062-34.8633L28.8086-42.9199C28.7109-42.9688 28.6621-43.0664 28.6621-43.1152C28.6621-43.1641 28.7598-43.2129 28.9062-43.2129L43.7988-42.2363C47.7539-42.1387 48.877-42.7246 49.8535-46.5332L53.5156-60.9863C53.5645-61.1328 53.6133-61.1816 53.6621-61.1816C53.7109-61.1816 53.7598-61.1328 53.8086-60.9863L57.4707-46.5332C58.4473-42.7246 59.5703-42.1387 63.5742-42.2363L78.4668-43.2129C78.6133-43.2129 78.7109-43.1641 78.7109-43.1152C78.7109-43.0664 78.6621-43.0176 78.5645-42.9199L65.918-34.8145C62.3047-32.4707 62.3535-31.4453 63.6719-27.7344L69.2383-13.8672C69.2871-13.7207 69.2383-13.6719 69.1895-13.623C69.1406-13.5742 69.0918-13.623 68.9941-13.6719L57.4707-23.2422C54.248-25.7324 53.0762-25.7324 49.8535-23.2422L38.3301-13.6719C38.2324-13.623 38.1836-13.5742 38.1348-13.623Z"/>
  </g>
  <g id="Heavy-S" transform="matrix(1 0 0 1 2583.71 696)">
   <path d="M25.1629 3.45134C27.7902 5.45269 30.9947 4.87827 34.3774 2.37712L52.9822-11.2899L71.5611 2.37712C74.9697 4.87827 78.1741 5.45269 80.8015 3.45134C83.38 1.49881 83.9083-1.75448 82.5729-5.6025L75.1965-27.4244L93.9593-40.8588C97.3421-43.2623 98.8755-46.1596 97.8073-49.2779C96.7507-52.3732 93.8419-53.8462 89.724-53.7974L66.756-53.6021L59.7702-75.6078C58.4952-79.5792 56.2355-81.862 52.9822-81.862C49.7404-81.862 47.4807-79.5792 46.1941-75.6078L39.2084-53.6021L16.2031-53.7974C12.1224-53.8462 9.22518-52.3732 8.15703-49.3152C7.06309-46.1596 8.63378-43.2623 12.0051-40.8588L30.7678-27.4244L23.3914-5.6025C22.0561-1.75448 22.5844 1.49881 25.1629 3.45134ZM36.3715-11.929C36.3227-11.9893 36.2854-12.0381 36.3342-12.1961L42.3501-27.7689C43.484-30.9843 43.4895-32.1047 40.346-34.1372L26.3654-43.2657C26.2562-43.3375 26.2074-43.4237 26.2189-43.484C26.2304-43.5444 26.3166-43.5817 26.4746-43.5817L43.1304-42.7204C46.5554-42.6342 47.6669-43.2432 48.5397-46.5563L52.8242-62.6574C52.873-62.8154 52.9218-62.8642 52.9822-62.8642C53.0425-62.8642 53.0913-62.8154 53.1402-62.6574L57.4246-46.5563C58.2974-43.2432 59.4205-42.6342 62.8828-42.7204L79.527-43.5817C79.6851-43.5817 79.7712-43.5444 79.7827-43.484C79.7942-43.4237 79.7454-43.3748 79.6362-43.2657L65.6183-34.0999C62.5121-32.0673 62.4803-30.9843 63.6258-27.7689L69.6301-12.1961C69.6789-12.0381 69.6416-11.9893 69.5928-11.929C69.544-11.8686 69.4836-11.929 69.3744-11.9893L56.3874-22.5161C53.6142-24.6722 52.3617-24.6722 49.5769-22.5161L36.6014-11.9893C36.4922-11.929 36.4319-11.8686 36.3715-11.929Z"/>
  </g>
  <g id="Bold-S" transform="matrix(1 0 0 1 2287.76 696)">
   <path d="M24.8535 3.05176C27.1973 4.83398 30.0537 4.27246 33.1787 1.97754L52.2217-12.0117L71.2646 1.97754C74.3896 4.27246 77.2461 4.83398 79.5898 3.05176C81.8848 1.31836 82.3486-1.58691 81.1035-5.15137L73.5596-27.5146L92.7734-41.2842C95.8984-43.4814 97.29-46.0693 96.3379-48.8525C95.4102-51.5869 92.7979-52.9053 88.9893-52.8564L65.4541-52.6611L58.3008-75.1953C57.1289-78.8574 55.127-80.9082 52.2217-80.9082C49.3408-80.9082 47.3389-78.8574 46.1426-75.1953L38.9893-52.6611L15.4297-52.8564C11.6455-52.9053 9.05762-51.5869 8.10547-48.877C7.15332-46.0693 8.56934-43.4814 11.6699-41.2842L30.8838-27.5146L23.3398-5.15137C22.0947-1.58691 22.5586 1.31836 24.8535 3.05176ZM34.3994-10.0342C34.3506-10.1074 34.3262-10.1562 34.375-10.3271L40.8936-27.8076C41.8213-30.4688 41.7236-31.6406 39.1602-33.3252L23.6328-43.6523C23.5107-43.75 23.4619-43.8232 23.4863-43.8965C23.5107-43.9697 23.584-43.9941 23.7549-43.9941L42.3828-43.2617C45.2148-43.1885 46.3135-43.8232 47.0703-46.582L52.0508-64.5264C52.0996-64.6973 52.1484-64.7461 52.2217-64.7461C52.2949-64.7461 52.3438-64.6973 52.3926-64.5264L57.373-46.582C58.1299-43.8232 59.2529-43.1885 62.1094-43.2617L80.7129-43.9941C80.8838-43.9941 80.957-43.9697 80.9814-43.8965C81.0059-43.8232 80.957-43.7744 80.835-43.6523L65.2832-33.3008C62.7441-31.6162 62.6221-30.4688 63.5742-27.8076L70.0684-10.3271C70.1172-10.1562 70.0928-10.1074 70.0439-10.0342C69.9951-9.96094 69.9219-10.0342 69.7998-10.1074L55.1758-21.7041C52.9053-23.4863 51.5625-23.4863 49.2676-21.7041L34.668-10.1074C34.5459-10.0342 34.4727-9.96094 34.3994-10.0342Z"/>
  </g>
  <g id="Semibold-S" transform="matrix(1 0 0 1 1991.57 696)">
   <path d="M24.6402 2.77627C26.7885 4.40742 29.405 3.85479 32.3522 1.70205L51.6974-12.5094L71.0603 1.70205C73.9897 3.85479 76.6063 4.40742 78.7545 2.77627C80.8539 1.19395 81.2733-1.47139 80.0904-4.84033L72.431-27.5769L91.9559-41.5774C94.9031-43.6325 96.197-46.0071 95.3248-48.5593C94.4859-51.0448 92.078-52.2565 88.4827-52.2077L64.5565-52.0124L57.2877-74.9109C56.1869-78.3598 54.3627-80.2506 51.6974-80.2506C49.0653-80.2506 47.2411-78.3598 46.107-74.9109L38.8382-52.0124L14.8965-52.2077C11.3167-52.2565 8.94209-51.0448 8.06992-48.5748C7.21553-46.0071 8.5249-43.6325 11.4389-41.5774L30.9638-27.5769L23.3043-4.84033C22.1214-1.47139 22.5408 1.19395 24.6402 2.77627ZM33.0397-8.72783C32.9909-8.80996 32.9754-8.85879 33.0242-9.03857L39.8894-27.8343C40.6749-30.1133 40.5062-31.3207 38.3426-32.7653L21.7488-43.9189C21.6179-44.0344 21.569-44.0987 21.6023-44.1809C21.6356-44.263 21.7-44.2785 21.8798-44.2785L41.8674-43.635C44.2906-43.5706 45.3804-44.2231 46.0572-46.5998L51.5176-65.8149C51.5664-65.9947 51.6152-66.0436 51.6974-66.0436C51.7795-66.0436 51.8283-65.9947 51.8771-65.8149L57.3375-46.5998C58.0144-44.2231 59.1374-43.5706 61.5762-43.635L81.5305-44.2785C81.7103-44.2785 81.7746-44.263 81.8079-44.1809C81.8412-44.0987 81.7924-44.0499 81.6614-43.9189L65.0521-32.7498C62.9041-31.3052 62.7198-30.1133 63.5387-27.8343L70.3705-9.03857C70.4193-8.85879 70.4038-8.80996 70.355-8.72783C70.3062-8.6457 70.224-8.72783 70.0931-8.80996L54.3404-21.1442C52.4165-22.6687 51.0115-22.6687 49.0543-21.1442L33.335-8.80996C33.204-8.72783 33.1219-8.6457 33.0397-8.72783Z"/>
  </g>
  <g id="Medium-S" transform="matrix(1 0 0 1 1695.26 696)">
   <path d="M24.4785 2.56738C26.4785 4.08398 28.9131 3.53809 31.7256 1.49316L51.2998-12.8867L70.9053 1.49316C73.6865 3.53809 76.1211 4.08398 78.1211 2.56738C80.0723 1.09961 80.458-1.38379 79.3223-4.60449L71.5752-27.624L91.3359-41.7998C94.1484-43.7471 95.3682-45.96 94.5566-48.3369C93.7852-50.6338 91.5322-51.7646 88.0986-51.7158L63.876-51.5205L56.5195-74.6953C55.4727-77.9824 53.7832-79.752 51.2998-79.752C48.8564-79.752 47.167-77.9824 46.0801-74.6953L38.7236-51.5205L14.4922-51.7158C11.0674-51.7646 8.85449-50.6338 8.04297-48.3457C7.2627-45.96 8.49121-43.7471 11.2637-41.7998L31.0244-27.624L23.2773-4.60449C22.1416-1.38379 22.5273 1.09961 24.4785 2.56738ZM32.0088-7.7373C31.96-7.82617 31.9512-7.875 32-8.06152L39.1279-27.8545C39.8057-29.8438 39.583-31.0781 37.7227-32.3408L20.3203-44.1211C20.1826-44.25 20.1338-44.3076 20.1738-44.3965C20.2139-44.4854 20.2715-44.4941 20.458-44.4941L41.4766-43.918C43.5898-43.8604 44.6729-44.5264 45.2891-46.6133L51.1133-66.792C51.1621-66.9785 51.2109-67.0273 51.2998-67.0273C51.3887-67.0273 51.4375-66.9785 51.4863-66.792L57.3105-46.6133C57.9268-44.5264 59.0498-43.8604 61.1719-43.918L82.1504-44.4941C82.3369-44.4941 82.3945-44.4854 82.4346-44.3965C82.4746-44.3076 82.4258-44.2588 82.2881-44.1211L64.877-32.332C63.0254-31.0693 62.7939-29.8438 63.5117-27.8545L70.5996-8.06152C70.6484-7.875 70.6396-7.82617 70.5908-7.7373C70.542-7.64844 70.4531-7.7373 70.3154-7.82617L53.707-20.7197C52.0459-22.0488 50.5938-22.0488 48.8926-20.7197L32.3242-7.82617C32.1865-7.7373 32.0977-7.64844 32.0088-7.7373Z"/>
  </g>
  <g id="Regular-S" transform="matrix(1 0 0 1 1399.06 696)">
   <path d="M24.2676 2.29492C26.0742 3.66211 28.2715 3.125 30.9082 1.2207L50.7812-13.3789L70.7031 1.2207C73.291 3.125 75.4883 3.66211 77.2949 2.29492C79.0527 0.976562 79.3945-1.26953 78.3203-4.29688L70.459-27.6855L90.5273-42.0898C93.1641-43.8965 94.2871-45.8984 93.5547-48.0469C92.8711-50.0977 90.8203-51.123 87.5977-51.0742L62.9883-50.8789L55.5176-74.4141C54.541-77.4902 53.0273-79.1016 50.7812-79.1016C48.584-79.1016 47.0703-77.4902 46.0449-74.4141L38.5742-50.8789L13.9648-51.0742C10.7422-51.123 8.74023-50.0977 8.00781-48.0469C7.32422-45.8984 8.44727-43.8965 11.0352-42.0898L31.1035-27.6855L23.2422-4.29688C22.168-1.26953 22.5098 0.976562 24.2676 2.29492ZM30.6641-6.44531C30.6152-6.54297 30.6152-6.5918 30.6641-6.78711L38.1348-27.8809C38.6719-29.4922 38.3789-30.7617 36.9141-31.7871L18.457-44.3848C18.3105-44.5312 18.2617-44.5801 18.3105-44.6777C18.3594-44.7754 18.4082-44.7754 18.6035-44.7754L40.9668-44.2871C42.6758-44.2383 43.75-44.9219 44.2871-46.6309L50.5859-68.0664C50.6348-68.2617 50.6836-68.3105 50.7812-68.3105C50.8789-68.3105 50.9277-68.2617 50.9766-68.0664L57.2754-46.6309C57.8125-44.9219 58.9355-44.2383 60.6445-44.2871L82.959-44.7754C83.1543-44.7754 83.2031-44.7754 83.252-44.6777C83.3008-44.5801 83.252-44.5312 83.1055-44.3848L64.6484-31.7871C63.1836-30.7617 62.8906-29.4922 63.4766-27.8809L70.8984-6.78711C70.9473-6.5918 70.9473-6.54297 70.8984-6.44531C70.8496-6.34766 70.752-6.44531 70.6055-6.54297L52.8809-20.166C51.5625-21.2402 50.0488-21.2402 48.6816-20.166L31.0059-6.54297C30.8594-6.44531 30.7617-6.34766 30.6641-6.44531Z"/>
  </g>
  <g id="Light-S" transform="matrix(1 0 0 1 1103.25 696)">
   <path d="M23.9346 1.64405C25.3931 2.73878 27.1514 2.36817 29.334 0.781742L49.8731-14.272L70.4458 0.781742C72.6099 2.36817 74.3682 2.73878 75.8267 1.64405C77.2363 0.583011 77.563-1.19385 76.6704-3.73682L68.6275-27.8975L89.3316-42.8013C91.5142-44.3203 92.3648-45.9438 91.7837-47.6533C91.2363-49.3106 89.6245-50.1846 86.9316-50.1509L61.5049-50.001L53.7466-74.2778C52.9214-76.8394 51.6802-78.1025 49.8731-78.1025C48.1147-78.1025 46.8584-76.8394 46.0146-74.2778L38.2564-50.001L12.8296-50.1509C10.1367-50.1846 8.54346-49.3106 7.97754-47.6533C7.43017-45.9438 8.26563-44.3203 10.4297-42.8013L31.1338-27.8975L23.0908-3.73682C22.1982-1.19385 22.5249 0.583011 23.9346 1.64405ZM28.7266-4.91652C28.6475-5.01417 28.6777-5.09327 28.7417-5.334L36.5-27.8506C36.9614-29.2197 36.6836-30.3228 35.4458-31.1968L15.9141-44.7935C15.7222-44.9551 15.6431-45.0342 15.6919-45.147C15.7407-45.2598 15.835-45.2598 16.0757-45.2598L39.9072-44.8926C41.3589-44.8589 42.2817-45.4668 42.7432-46.9033L49.6323-69.6709C49.6963-69.9116 49.7603-70.0058 49.8731-70.0058C49.9858-70.0058 50.0498-69.9116 50.1289-69.6709L57.0181-46.9033C57.4795-45.4668 58.436-44.8589 59.8877-44.8926L83.6855-45.2598C83.9263-45.2598 84.0205-45.2598 84.0693-45.147C84.1182-45.0342 84.0391-44.9551 83.8472-44.7935L64.3154-31.1968C63.0776-30.3228 62.7998-29.2197 63.2798-27.8506L71.0195-5.334C71.0835-5.09327 71.1138-5.01417 71.0347-4.91652C70.9556-4.81886 70.8428-4.91652 70.6509-5.04445L51.6699-19.394C50.5332-20.3018 49.2617-20.3018 48.0913-19.394L29.1441-5.04445C28.9522-4.91652 28.8394-4.81886 28.7266-4.91652Z"/>
  </g>
  <g id="Thin-S" transform="matrix(1 0 0 1 807.733 696)">
   <path d="M23.4941 0.783215C24.4922 1.5176 25.6699 1.3672 27.252 0.20118L48.6719-15.4531L70.1055 0.20118C71.709 1.3672 72.8867 1.5176 73.8848 0.783215C74.834 0.0625072 75.1407-1.09375 74.4883-2.9961L66.2051-28.1777L87.75-43.7422C89.3321-44.8809 89.8223-46.0039 89.4414-47.1328C89.0742-48.2695 88.043-48.9434 86.0508-48.9297L59.543-48.8399L51.4043-74.0977C50.7793-75.9785 49.8985-76.7813 48.6719-76.7813C47.4941-76.7813 46.5781-75.9785 45.9746-74.0977L37.8359-48.8399L11.3281-48.9297C9.33595-48.9434 8.28321-48.2695 7.9375-47.1328C7.57031-46.0039 8.02539-44.8809 9.62892-43.7422L31.1738-28.1777L22.8906-2.9961C22.2383-1.09375 22.5449 0.0625072 23.4941 0.783215ZM26.1641-2.89456C26.045-2.99222 26.1153-3.11136 26.1993-3.41214L34.3379-27.8105C34.6993-28.8594 34.4414-29.7422 33.5039-30.416L12.5508-45.334C12.2989-45.5156 12.1797-45.6348 12.2286-45.7676C12.2774-45.9004 12.4317-45.9004 12.7325-45.9004L38.5059-45.6933C39.6172-45.6797 40.3399-46.1875 40.7012-47.2637L48.3711-71.7929C48.4551-72.0937 48.5391-72.248 48.6719-72.248C48.8047-72.248 48.8887-72.0937 49.0078-71.7929L56.6777-47.2637C57.0391-46.1875 57.7754-45.6797 58.8867-45.6933L84.6465-45.9004C84.9473-45.9004 85.1015-45.9004 85.1504-45.7676C85.1992-45.6348 85.0801-45.5156 84.8281-45.334L63.875-30.416C62.9375-29.7422 62.6797-28.8594 63.0195-27.8105L71.1797-3.41214C71.2637-3.11136 71.334-2.99222 71.2148-2.89456C71.0957-2.7969 70.9629-2.89456 70.7109-3.06253L50.0684-18.3731C49.1719-19.0606 48.2207-19.0606 47.3106-18.3731L26.6817-3.06253C26.4297-2.89456 26.2969-2.7969 26.1641-2.89456Z"/>
  </g>
  <g id="Ultralight-S" transform="matrix(1 0 0 1 511.632 696)">
   <path d="M23.2686 0.342301C24.0308 0.892112 24.9112 0.85451 26.1856-0.096181L48.0567-16.0581L69.9312-0.096181C71.2476 0.85451 72.128 0.892112 72.8902 0.342301C73.6036-0.204092 73.8999-1.04248 73.3706-2.61671L64.9644-28.3213L86.94-44.2241C88.2144-45.168 88.5201-46.0347 88.2417-46.8662C87.9668-47.7363 87.2329-48.3076 85.5996-48.3042L58.5381-48.2451L50.2046-74.0054C49.6822-75.5376 48.9859-76.1045 48.0567-76.1045C47.1763-76.1045 46.4346-75.5376 45.9541-74.0054L37.6206-48.2451L10.5591-48.3042C8.9258-48.3076 8.14991-47.7363 7.91699-46.8662C7.64209-46.0347 7.90235-45.168 9.21876-44.2241L31.1943-28.3213L22.7881-2.61671C22.2588-1.04248 22.5552-0.204092 23.2686 0.342301ZM24.8516-1.85892C24.712-1.95658 24.8028-2.09623 24.897-2.42777L33.2305-27.79C33.5406-28.6748 33.293-29.4448 32.5093-30.0161L10.8282-45.6108C10.5455-45.8027 10.4058-45.9424 10.4547-46.0854C10.5035-46.2285 10.6885-46.2285 11.0201-46.2285L37.7881-46.1035C38.7251-46.1001 39.3452-46.5566 39.6553-47.4482L47.7251-72.8798C47.8194-73.2114 47.9136-73.3964 48.0567-73.3964C48.1997-73.3964 48.294-73.2114 48.4336-72.8798L56.5034-47.4482C56.8135-46.5566 57.437-46.1001 58.374-46.1035L85.1387-46.2285C85.4702-46.2285 85.6553-46.2285 85.7041-46.0854C85.7529-45.9424 85.6133-45.8027 85.3305-45.6108L63.6494-30.0161C62.8657-29.4448 62.6182-28.6748 62.8862-27.79L71.2617-2.42777C71.356-2.09623 71.4468-1.95658 71.3071-1.85892C71.1675-1.76127 71.0244-1.85892 70.7417-2.0474L49.2481-17.8501C48.4746-18.4248 47.6875-18.4248 46.9107-17.8501L25.4205-2.0474C25.1377-1.85892 24.9947-1.76127 24.8516-1.85892Z"/>
  </g>
 </g>
</svg>
